Coordinates
version=1
nRows=11
nColumns=40
inDegrees=yes

Units are S.I. units (second, meters, Newtons, ...)
Angles are in degrees.

endheader
time	pelvis_tilt	pelvis_list	pelvis_rotation	pelvis_tx	pelvis_ty	pelvis_tz	hip_flexion_r	hip_adduction_r	hip_rotation_r	knee_angle_r	knee_angle_r_beta	ankle_angle_r	subtalar_angle_r	mtp_angle_r	hip_flexion_l	hip_adduction_l	hip_rotation_l	knee_angle_l	knee_angle_l_beta	ankle_angle_l	subtalar_angle_l	mtp_angle_l	lumbar_extension	lumbar_bending	lumbar_rotation	arm_flex_r	arm_add_r	arm_rot_r	elbow_flex_r	pro_sup_r	wrist_flex_r	wrist_dev_r	arm_flex_l	arm_add_l	arm_rot_l	elbow_flex_l	pro_sup_l	wrist_flex_l	wrist_dev_l
     24.64000000	     -4.93947933	     -5.01908322	      2.21418866	      0.95020909	      0.91430200	      0.40371336	     15.18700279	     -6.94068651	     -7.91266517	     52.54244834	     52.54244834	      3.72072773	    -13.39971607	    -13.98108625	     22.25776770	     -3.56395765	     -1.92258481	     33.41315921	     33.41315921	     18.42355106	    -16.80227716	      7.16116566	    -10.03927632	      5.26893329	      3.97962433	     11.60499664	    -15.70592809	    -11.51740482	     29.17203220	     46.12837435	      0.00000000	      0.00000000	      5.89383120	    -18.48649589	      4.04290371	     51.62329082	     46.67229679	      0.00000000	      0.00000000
     24.65835714	     -4.99060202	     -5.06203916	      1.44528349	      0.94801192	      0.91351752	      0.40314364	     17.40647570	     -7.03657268	     -7.40314977	     55.67718397	     55.67718397	      2.23608213	    -15.07014964	    -13.23860992	     22.13731754	     -3.74172976	     -2.42039992	     33.77829430	     33.77829430	     18.84009339	    -17.08680536	      7.23307805	    -10.19932058	      5.30426161	      3.58667030	      9.79047914	    -15.01899736	    -11.40017890	     28.46137558	     46.13560876	      0.00000000	      0.00000000	      7.05464339	    -18.89024251	      3.60420515	     52.24731185	     46.72971543	      0.00000000	      0.00000000
     24.67671429	     -4.95615174	     -5.22643694	      0.64518963	      0.94584698	      0.91295915	      0.40284012	     19.52269996	     -6.81200967	     -6.80132927	     58.66316411	     58.66316411	      1.78163703	    -16.16722278	     -9.45936894	     21.93156758	     -4.07566413	     -2.89979190	     34.20381120	     34.20381120	     19.52004002	    -17.23020868	      7.79772699	    -10.52577752	      5.43035183	      3.57967147	      7.42369126	    -14.54206231	    -11.25793698	     28.43488726	     46.11200730	      0.00000000	      0.00000000	      8.36781377	    -19.03567874	      2.55438684	     53.45244641	     46.85160956	      0.00000000	      0.00000000
     24.69507143	     -5.02060578	     -5.26800986	     -0.16003704	      0.94366279	      0.91254116	      0.40256496	     21.70906452	     -6.72139668	     -6.28892002	     61.40704851	     61.40704851	      2.42792044	    -16.22064293	     -3.62234191	     21.69463729	     -4.26474792	     -3.43723724	     34.38427939	     34.38427939	     20.10815174	    -17.36484468	      8.36134378	    -10.71477551	      5.46810398	      3.17736495	      5.06260675	    -13.97786363	    -10.95704194	     29.12558267	     46.05390972	      0.00000000	      0.00000000	      9.44259597	    -19.31168711	      1.22484832	     54.25682108	     46.98969085	      0.00000000	      0.00000000
     24.71342857	     -5.04992917	     -5.31625206	     -0.96341013	      0.94156357	      0.91253672	      0.40250430	     23.47897267	     -6.58620112	     -5.93179201	     63.13576959	     63.13576959	      1.67104306	    -17.01397730	     -3.00393882	     21.29495521	     -4.47686447	     -4.03123211	     34.32911921	     34.32911921	     20.38845550	    -17.53199300	      8.34921922	    -10.90665156	      5.49547799	      2.77788774	      3.29506706	    -13.39332568	    -10.85458880	     28.49680847	     46.05850382	      0.00000000	      0.00000000	     10.62269729	    -19.84507219	      0.75327388	     54.90321590	     47.04810324	      0.00000000	      0.00000000
     24.73178571	     -5.12530579	     -5.51319104	     -1.80532963	      0.93943611	      0.91296452	      0.40284570	     25.26365171	     -6.08311214	     -5.49478394	     64.50621697	     64.50621697	      2.80352963	    -16.85947474	      2.15091515	     20.86977464	     -4.89121441	     -4.66107801	     34.13930133	     34.13930133	     20.66299123	    -17.54557780	      8.45187999	    -11.14166690	      5.68835075	      2.87260555	      0.85703797	    -13.04949146	    -10.80692455	     29.15387155	     46.02213385	      0.00000000	      0.00000000	     11.84826071	    -19.64931435	     -1.27131303	     56.18289544	     47.23896614	      0.00000000	      0.00000000
     24.75014286	     -5.24321712	     -5.62943352	     -2.64652168	      0.93733839	      0.91384802	      0.40342461	     26.73818337	     -5.66064195	     -5.19666469	     64.84602053	     64.84602053	      2.76917621	    -17.09723210	      2.47866411	     20.32688329	     -5.20772004	     -5.33274381	     33.64205184	     33.64205184	     20.77045699	    -17.57931938	      8.51448144	    -11.27146907	      5.78931571	      2.76018297	     -0.83467992	    -12.62786941	    -10.72600676	     28.56847995	     46.02944439	      0.00000000	      0.00000000	     13.06707758	    -19.95086611	     -1.89119679	     57.05764175	     47.30932291	      0.00000000	      0.00000000
     24.76850000	     -5.40983609	     -5.83433482	     -3.45738181	      0.93527323	      0.91519141	      0.40429092	     28.01117721	     -5.11171534	     -5.06173084	     64.39080969	     64.39080969	      3.04355503	    -16.99036306	      2.54306880	     19.73369397	     -5.61738894	     -5.98085522	     32.94867885	     32.94867885	     20.80166109	    -17.54972801	      8.63869954	    -11.33162389	      5.99615210	      2.40667486	     -2.26377657	    -12.20509729	    -10.70026721	     28.15304702	     46.03351611	      0.00000000	      0.00000000	     14.13413776	    -20.45134495	     -2.46345092	     57.71768019	     47.37182442	      0.00000000	      0.00000000
     24.78685714	     -5.69575875	     -6.03768314	     -4.30496962	      0.93309964	      0.91678012	      0.40551157	     29.21700369	     -4.47246970	     -4.93419862	     63.18189399	     63.18189399	      3.56624866	    -16.63374123	      2.48421640	     19.17235598	     -6.04918365	     -6.69264373	     32.07976151	     32.07976151	     20.75480551	    -17.46232675	      8.79828294	    -11.29798274	      6.21027158	      2.19412762	     -3.55710892	    -11.85573337	    -10.69011345	     27.80581295	     46.03670927	      0.00000000	      0.00000000	     15.23445276	    -20.94682981	     -3.07757268	     58.44335350	     47.43821695	      0.00000000	      0.00000000
     24.80521429	     -5.85462780	     -6.20860107	     -5.21780016	      0.93111607	      0.91893582	      0.40700143	     30.01328847	     -3.76595654	     -4.71645179	     61.11838793	     61.11838793	      3.98778100	    -16.20107910	      1.55343587	     18.20729042	     -6.46607416	     -7.65390016	     30.75001493	     30.75001493	     20.17653628	    -17.32075339	      7.79584283	    -11.54440091	      6.34322016	      2.53624810	     -5.68022282	    -11.60794666	    -11.25928454	     29.23714475	     46.01299366	      0.00000000	      0.00000000	     16.13557078	    -19.69654164	     -7.53190807	     61.03147108	     47.80962260	      0.00000000	      0.00000000
     24.82357143	     -6.15889885	     -6.38911333	     -6.07500311	      0.92902473	      0.92107674	      0.40869191	     30.65862630	     -3.07361528	     -4.67762469	     58.19704635	     58.19704635	      4.12356668	    -15.56404866	     -0.67586431	     17.38908163	     -6.85934515	     -8.50404162	     29.37175204	     29.37175204	     19.65031167	    -17.19199790	      7.20530522	    -11.55851359	      6.52004869	      2.37953506	     -6.85681015	    -11.38062977	    -11.29979544	     29.43333819	     46.01584904	      0.00000000	      0.00000000	     16.98907739	    -19.60391644	     -9.56848478	     62.68487711	     47.96190025	      0.00000000	      0.00000000
